# xmcd
#
# Track frame offsets: 
#        150
#        13100
#        23957
#        37760
#        49505
#        60855
#        73790
#        84222
#        96547
#        108810
#        119857
#        132745
#        143662
#        155775
#        167165
#        178000
#        189280
#        202397
#        214027
#        226390
#        238632
#        249930
#        260177
#
# Disc length: 3619 seconds
#
# Revision: 2
# Processed by: cddbd v1.5.2PL0 Copyright (c) Steve Scherf et al.
# Submitted via: ExactAudioCopyFreeDBPlugin 1.0
#
DISCID=4c0e2117
DTITLE=Billy Walker - Cross the Brazos at Waco - Disc 2
DYEAR=1900
DGENRE=Country
TTITLE0=Back Street Affair
TTITLE1=You Can Talk Me Out of Anything (But You)
TTITLE2=True Love's So Hard to Find
TTITLE3=You Have My Heart Now
TTITLE4=You Know You Did
TTITLE5=The One You Hurt
TTITLE6=I Can Tell
TTITLE7=I Had A Dream
TTITLE8=I'm Looking For Love
TTITLE9=Gal About Town
TTITLE10=I Didn't Have The Nerve It Took To Go
TTITLE11=Don't Let Your Pride Break Your Heart
TTITLE12=Mexican Joe
TTITLE13=Time Will Tell
TTITLE14=Headin' For Heartaches
TTITLE15=It Hurts Too Much to Laugh (And I'm Too Big To Cry)
TTITLE16=I Got Lost Along the Way
TTITLE17=I Can't Keep the Girls Away
TTITLE18=Thank You For Calling
TTITLE19=Candle Light
TTITLE20=Pretend You Just Don't Know Me
TTITLE21=I'm a Fool to Care
TTITLE22=Going-Going-Gone!
EXTD=
EXTT0=
EXTT1=
EXTT2=
EXTT3=
EXTT4=
EXTT5=
EXTT6=
EXTT7=
EXTT8=
EXTT9=
EXTT10=
EXTT11=
EXTT12=
EXTT13=
EXTT14=
EXTT15=
EXTT16=
EXTT17=
EXTT18=
EXTT19=
EXTT20=
EXTT21=
EXTT22=
PLAYORDER=
